<svg xmlns="http://www.w3.org/2000/svg" viewBox="0 0 800 450" preserveAspectRatio="xMidYMid slice">
  <rect width="800" height="450" fill="#eff4ff"/>
  <g fill="#2b6cff" opacity="0.3">
        <circle cx="25" cy="25" r="3"/><circle cx="25" cy="73" r="3"/><circle cx="25" cy="121" r="3"/><circle cx="25" cy="169" r="3"/><circle cx="25" cy="217" r="3"/><circle cx="25" cy="265" r="3"/><circle cx="25" cy="313" r="3"/><circle cx="25" cy="361" r="3"/><circle cx="25" cy="409" r="3"/><circle cx="73" cy="25" r="3"/><circle cx="73" cy="73" r="3"/><circle cx="73" cy="121" r="3"/><circle cx="73" cy="169" r="3"/><circle cx="73" cy="217" r="3"/><circle cx="73" cy="265" r="3"/><circle cx="73" cy="313" r="3"/><circle cx="73" cy="361" r="3"/><circle cx="73" cy="409" r="3"/><circle cx="121" cy="25" r="3"/><circle cx="121" cy="73" r="3"/><circle cx="121" cy="121" r="3"/><circle cx="121" cy="169" r="3"/><circle cx="121" cy="217" r="3"/><circle cx="121" cy="265" r="3"/><circle cx="121" cy="313" r="3"/><circle cx="121" cy="361" r="3"/><circle cx="121" cy="409" r="3"/><circle cx="169" cy="25" r="3"/><circle cx="169" cy="73" r="3"/><circle cx="169" cy="121" r="3"/><circle cx="169" cy="169" r="3"/><circle cx="169" cy="217" r="3"/><circle cx="169" cy="265" r="3"/><circle cx="169" cy="313" r="3"/><circle cx="169" cy="361" r="3"/><circle cx="169" cy="409" r="3"/><circle cx="217" cy="25" r="3"/><circle cx="217" cy="73" r="3"/><circle cx="217" cy="121" r="3"/><circle cx="217" cy="169" r="3"/><circle cx="217" cy="217" r="3"/><circle cx="217" cy="265" r="3"/><circle cx="217" cy="313" r="3"/><circle cx="217" cy="361" r="3"/><circle cx="217" cy="409" r="3"/><circle cx="265" cy="25" r="3"/><circle cx="265" cy="73" r="3"/><circle cx="265" cy="121" r="3"/><circle cx="265" cy="169" r="3"/><circle cx="265" cy="217" r="3"/><circle cx="265" cy="265" r="3"/><circle cx="265" cy="313" r="3"/><circle cx="265" cy="361" r="3"/><circle cx="265" cy="409" r="3"/><circle cx="313" cy="25" r="3"/><circle cx="313" cy="73" r="3"/><circle cx="313" cy="121" r="3"/><circle cx="313" cy="169" r="3"/><circle cx="313" cy="217" r="3"/><circle cx="313" cy="265" r="3"/><circle cx="313" cy="313" r="3"/><circle cx="313" cy="361" r="3"/><circle cx="313" cy="409" r="3"/><circle cx="361" cy="25" r="3"/><circle cx="361" cy="73" r="3"/><circle cx="361" cy="121" r="3"/><circle cx="361" cy="169" r="3"/><circle cx="361" cy="217" r="3"/><circle cx="361" cy="265" r="3"/><circle cx="361" cy="313" r="3"/><circle cx="361" cy="361" r="3"/><circle cx="361" cy="409" r="3"/><circle cx="409" cy="25" r="3"/><circle cx="409" cy="73" r="3"/><circle cx="409" cy="121" r="3"/><circle cx="409" cy="169" r="3"/><circle cx="409" cy="217" r="3"/><circle cx="409" cy="265" r="3"/><circle cx="409" cy="313" r="3"/><circle cx="409" cy="361" r="3"/><circle cx="409" cy="409" r="3"/><circle cx="457" cy="25" r="3"/><circle cx="457" cy="73" r="3"/><circle cx="457" cy="121" r="3"/><circle cx="457" cy="169" r="3"/><circle cx="457" cy="217" r="3"/><circle cx="457" cy="265" r="3"/><circle cx="457" cy="313" r="3"/><circle cx="457" cy="361" r="3"/><circle cx="457" cy="409" r="3"/><circle cx="505" cy="25" r="3"/><circle cx="505" cy="73" r="3"/><circle cx="505" cy="121" r="3"/><circle cx="505" cy="169" r="3"/><circle cx="505" cy="217" r="3"/><circle cx="505" cy="265" r="3"/><circle cx="505" cy="313" r="3"/><circle cx="505" cy="361" r="3"/><circle cx="505" cy="409" r="3"/><circle cx="553" cy="25" r="3"/><circle cx="553" cy="73" r="3"/><circle cx="553" cy="121" r="3"/><circle cx="553" cy="169" r="3"/><circle cx="553" cy="217" r="3"/><circle cx="553" cy="265" r="3"/><circle cx="553" cy="313" r="3"/><circle cx="553" cy="361" r="3"/><circle cx="553" cy="409" r="3"/><circle cx="601" cy="25" r="3"/><circle cx="601" cy="73" r="3"/><circle cx="601" cy="121" r="3"/><circle cx="601" cy="169" r="3"/><circle cx="601" cy="217" r="3"/><circle cx="601" cy="265" r="3"/><circle cx="601" cy="313" r="3"/><circle cx="601" cy="361" r="3"/><circle cx="601" cy="409" r="3"/><circle cx="649" cy="25" r="3"/><circle cx="649" cy="73" r="3"/><circle cx="649" cy="121" r="3"/><circle cx="649" cy="169" r="3"/><circle cx="649" cy="217" r="3"/><circle cx="649" cy="265" r="3"/><circle cx="649" cy="313" r="3"/><circle cx="649" cy="361" r="3"/><circle cx="649" cy="409" r="3"/><circle cx="697" cy="25" r="3"/><circle cx="697" cy="73" r="3"/><circle cx="697" cy="121" r="3"/><circle cx="697" cy="169" r="3"/><circle cx="697" cy="217" r="3"/><circle cx="697" cy="265" r="3"/><circle cx="697" cy="313" r="3"/><circle cx="697" cy="361" r="3"/><circle cx="697" cy="409" r="3"/><circle cx="745" cy="25" r="3"/><circle cx="745" cy="73" r="3"/><circle cx="745" cy="121" r="3"/><circle cx="745" cy="169" r="3"/><circle cx="745" cy="217" r="3"/><circle cx="745" cy="265" r="3"/><circle cx="745" cy="313" r="3"/><circle cx="745" cy="361" r="3"/><circle cx="745" cy="409" r="3"/>
      </g>
  <g transform="translate(48 48)">
        <rect width="94" height="26" rx="13" fill="#eff4ff"/>
        <text x="47" y="17" text-anchor="middle" font-family="'Pretendard Variable', sans-serif" font-size="12" font-weight="500" fill="#2b6cff" letter-spacing="0.02em">프론트엔드</text>
      </g>
  <text x="48" y="320" font-family="'Pretendard Variable', 'Pretendard', -apple-system, sans-serif" font-size="36" font-weight="700" fill="#0b1220" letter-spacing="-0.5">CSSOM (CSS Object Model)</text>
  <rect x="48" y="406" width="24" height="2" fill="#2b6cff"/>
  <text x="80" y="412" font-family="'JetBrains Mono', monospace" font-size="10" fill="#9aa1b4" letter-spacing="0.12em">COVER · PLACEHOLDER</text>
</svg>