<svg xmlns="http://www.w3.org/2000/svg" viewBox="0 0 800 450" preserveAspectRatio="xMidYMid slice">
  <rect width="800" height="450" fill="#eff4ff"/>
  <g opacity="0.2">
        <line x1="0" y1="0" x2="0" y2="450" stroke="#2b6cff" stroke-width="0.6"/><line x1="20" y1="0" x2="20" y2="450" stroke="#2b6cff" stroke-width="0.6"/><line x1="40" y1="0" x2="40" y2="450" stroke="#2b6cff" stroke-width="0.6"/><line x1="60" y1="0" x2="60" y2="450" stroke="#2b6cff" stroke-width="0.6"/><line x1="80" y1="0" x2="80" y2="450" stroke="#2b6cff" stroke-width="0.6"/><line x1="100" y1="0" x2="100" y2="450" stroke="#2b6cff" stroke-width="0.6"/><line x1="120" y1="0" x2="120" y2="450" stroke="#2b6cff" stroke-width="0.6"/><line x1="140" y1="0" x2="140" y2="450" stroke="#2b6cff" stroke-width="0.6"/><line x1="160" y1="0" x2="160" y2="450" stroke="#2b6cff" stroke-width="0.6"/><line x1="180" y1="0" x2="180" y2="450" stroke="#2b6cff" stroke-width="0.6"/><line x1="200" y1="0" x2="200" y2="450" stroke="#2b6cff" stroke-width="0.6"/><line x1="220" y1="0" x2="220" y2="450" stroke="#2b6cff" stroke-width="0.6"/><line x1="240" y1="0" x2="240" y2="450" stroke="#2b6cff" stroke-width="0.6"/><line x1="260" y1="0" x2="260" y2="450" stroke="#2b6cff" stroke-width="0.6"/><line x1="280" y1="0" x2="280" y2="450" stroke="#2b6cff" stroke-width="0.6"/><line x1="300" y1="0" x2="300" y2="450" stroke="#2b6cff" stroke-width="0.6"/><line x1="320" y1="0" x2="320" y2="450" stroke="#2b6cff" stroke-width="0.6"/><line x1="340" y1="0" x2="340" y2="450" stroke="#2b6cff" stroke-width="0.6"/><line x1="360" y1="0" x2="360" y2="450" stroke="#2b6cff" stroke-width="0.6"/><line x1="380" y1="0" x2="380" y2="450" stroke="#2b6cff" stroke-width="0.6"/><line x1="400" y1="0" x2="400" y2="450" stroke="#2b6cff" stroke-width="0.6"/><line x1="420" y1="0" x2="420" y2="450" stroke="#2b6cff" stroke-width="0.6"/><line x1="440" y1="0" x2="440" y2="450" stroke="#2b6cff" stroke-width="0.6"/><line x1="460" y1="0" x2="460" y2="450" stroke="#2b6cff" stroke-width="0.6"/><line x1="480" y1="0" x2="480" y2="450" stroke="#2b6cff" stroke-width="0.6"/><line x1="500" y1="0" x2="500" y2="450" stroke="#2b6cff" stroke-width="0.6"/><line x1="520" y1="0" x2="520" y2="450" stroke="#2b6cff" stroke-width="0.6"/><line x1="540" y1="0" x2="540" y2="450" stroke="#2b6cff" stroke-width="0.6"/><line x1="560" y1="0" x2="560" y2="450" stroke="#2b6cff" stroke-width="0.6"/><line x1="580" y1="0" x2="580" y2="450" stroke="#2b6cff" stroke-width="0.6"/><line x1="600" y1="0" x2="600" y2="450" stroke="#2b6cff" stroke-width="0.6"/><line x1="620" y1="0" x2="620" y2="450" stroke="#2b6cff" stroke-width="0.6"/><line x1="640" y1="0" x2="640" y2="450" stroke="#2b6cff" stroke-width="0.6"/><line x1="660" y1="0" x2="660" y2="450" stroke="#2b6cff" stroke-width="0.6"/><line x1="680" y1="0" x2="680" y2="450" stroke="#2b6cff" stroke-width="0.6"/><line x1="700" y1="0" x2="700" y2="450" stroke="#2b6cff" stroke-width="0.6"/><line x1="720" y1="0" x2="720" y2="450" stroke="#2b6cff" stroke-width="0.6"/><line x1="740" y1="0" x2="740" y2="450" stroke="#2b6cff" stroke-width="0.6"/><line x1="760" y1="0" x2="760" y2="450" stroke="#2b6cff" stroke-width="0.6"/><line x1="780" y1="0" x2="780" y2="450" stroke="#2b6cff" stroke-width="0.6"/><line x1="800" y1="0" x2="800" y2="450" stroke="#2b6cff" stroke-width="0.6"/><line x1="820" y1="0" x2="820" y2="450" stroke="#2b6cff" stroke-width="0.6"/>
        <line x1="0" y1="0" x2="800" y2="0" stroke="#2b6cff" stroke-width="0.6"/><line x1="0" y1="20" x2="800" y2="20" stroke="#2b6cff" stroke-width="0.6"/><line x1="0" y1="40" x2="800" y2="40" stroke="#2b6cff" stroke-width="0.6"/><line x1="0" y1="60" x2="800" y2="60" stroke="#2b6cff" stroke-width="0.6"/><line x1="0" y1="80" x2="800" y2="80" stroke="#2b6cff" stroke-width="0.6"/><line x1="0" y1="100" x2="800" y2="100" stroke="#2b6cff" stroke-width="0.6"/><line x1="0" y1="120" x2="800" y2="120" stroke="#2b6cff" stroke-width="0.6"/><line x1="0" y1="140" x2="800" y2="140" stroke="#2b6cff" stroke-width="0.6"/><line x1="0" y1="160" x2="800" y2="160" stroke="#2b6cff" stroke-width="0.6"/><line x1="0" y1="180" x2="800" y2="180" stroke="#2b6cff" stroke-width="0.6"/><line x1="0" y1="200" x2="800" y2="200" stroke="#2b6cff" stroke-width="0.6"/><line x1="0" y1="220" x2="800" y2="220" stroke="#2b6cff" stroke-width="0.6"/><line x1="0" y1="240" x2="800" y2="240" stroke="#2b6cff" stroke-width="0.6"/><line x1="0" y1="260" x2="800" y2="260" stroke="#2b6cff" stroke-width="0.6"/><line x1="0" y1="280" x2="800" y2="280" stroke="#2b6cff" stroke-width="0.6"/><line x1="0" y1="300" x2="800" y2="300" stroke="#2b6cff" stroke-width="0.6"/><line x1="0" y1="320" x2="800" y2="320" stroke="#2b6cff" stroke-width="0.6"/><line x1="0" y1="340" x2="800" y2="340" stroke="#2b6cff" stroke-width="0.6"/><line x1="0" y1="360" x2="800" y2="360" stroke="#2b6cff" stroke-width="0.6"/><line x1="0" y1="380" x2="800" y2="380" stroke="#2b6cff" stroke-width="0.6"/><line x1="0" y1="400" x2="800" y2="400" stroke="#2b6cff" stroke-width="0.6"/><line x1="0" y1="420" x2="800" y2="420" stroke="#2b6cff" stroke-width="0.6"/><line x1="0" y1="440" x2="800" y2="440" stroke="#2b6cff" stroke-width="0.6"/><line x1="0" y1="460" x2="800" y2="460" stroke="#2b6cff" stroke-width="0.6"/>
      </g>
      <circle cx="605" cy="165" r="70" fill="#2b6cff" opacity="0.25"/>
      <rect x="145" y="255" width="130" height="110" rx="12" fill="#2b6cff" opacity="0.4"/>
  
  <text x="48" y="320" font-family="'Pretendard Variable', 'Pretendard', -apple-system, sans-serif" font-size="36" font-weight="700" fill="#0b1220" letter-spacing="-0.5">동시성과 병렬성 (Concurrency &amp;</text><text x="48" y="368" font-family="'Pretendard Variable', 'Pretendard', -apple-system, sans-serif" font-size="36" font-weight="700" fill="#0b1220" letter-spacing="-0.5">Parallelism)</text>
  <rect x="48" y="406" width="24" height="2" fill="#2b6cff"/>
  <text x="80" y="412" font-family="'JetBrains Mono', monospace" font-size="10" fill="#9aa1b4" letter-spacing="0.12em">COVER · PLACEHOLDER</text>
</svg>