
<svg width="22" height="22" viewBox="0 0 22 22" xmlns="http://www.w3.org/2000/svg">
  <!-- window with border -->
  <rect x="1" y="1" width="20" height="20" rx="3" fill="#ffffff" stroke="#1a1a1a" stroke-width="1" />

  <!-- navigation bar with smooth rounded top, flat bottom -->
  <path
    d="M1.5,4
       A2.5,2.5 0 0 1 4,1.5
       H18
       A2.5,2.5 0 0 1 20.5,4
       V5
       H1.5
       Z"
    fill="#f34794"
  />

  <!-- nav buttons -->
  <circle cx="3.5" cy="3.25" r="0.8" fill="#ff5f56"/>
  <circle cx="6" cy="3.25" r="0.8" fill="#ffbd2e"/>
  <circle cx="8.5" cy="3.25" r="0.8" fill="#27c93f"/>

  <!-- code panel lines (brighter style) -->
  <rect x="3" y="7.5" width="12" height="1.2" fill="#333" rx="0.5"/>
  <rect x="3" y="9.5" width="8" height="1.2" fill="#d72670" rx="0.5"/>
  <rect x="3" y="11.5" width="11" height="1.2" fill="#4a4a4a" rx="0.5"/>
  <rect x="3" y="13.5" width="7" height="1.2" fill="#4a4a4a" rx="0.5"/>

  <!-- simulated command bar -->
  <rect x="2" y="18" width="18" height="1.2" fill="#e0e0e0" rx="0.6"/>
</svg>
