<?xml version="1.0" encoding="UTF-8"?>
<svg
  xmlns="http://www.w3.org/2000/svg"
  width="20"
  height="20"
  viewBox="0 0 100 100"
  stroke="currentColor"
>
  <path
    fill="currentColor"
    d="M97.197,40.597C96.914,40.221,96.47,40,96,40h-8.5v-9.327c0-0.828-0.671-1.499-1.498-1.5l-44.407-0.055l-7.179-7.179
    c-0.281-0.281-0.663-0.439-1.061-0.439H12c-0.828,0-1.5,0.672-1.5,1.5v54c0,0.828,0.672,1.5,1.5,1.5h73.795
    c0.731,0,1.339-0.525,1.472-1.218c0.071-0.115,0.137-0.234,0.176-0.37l10-35C97.571,41.46,97.481,40.973,97.197,40.597z
    M32.734,24.5l7.178,7.178c0.28,0.281,0.661,0.438,1.059,0.439L84.5,32.171V40H22c-0.67,0-1.258,0.444-1.442,1.088L13.5,65.79V24.5
    H32.734z M84.726,75.5h-70.88L23.132,43h70.88L84.726,75.5z"
  />
</svg>