<svg width="1024" height="1024" viewBox="0 0 1024 1024" xmlns="http://www.w3.org/2000/svg">
  <defs>
    <linearGradient id="bg" x1="0" y1="0" x2="1" y2="1">
      <stop offset="0" stop-color="#ffffff"/>
      <stop offset="1" stop-color="#efeff2"/>
    </linearGradient>
    <linearGradient id="bar" x1="0" y1="0" x2="0" y2="1">
      <stop offset="0" stop-color="#f34794"/>
      <stop offset="1" stop-color="#d72670"/>
    </linearGradient>
    <clipPath id="rounded">
      <rect x="0" y="0" width="1024" height="1024" rx="224" ry="224"/>
    </clipPath>
  </defs>

  <g clip-path="url(#rounded)">
    <rect x="0" y="0" width="1024" height="1024" fill="url(#bg)"/>
    <rect x="0" y="0" width="1024" height="220" fill="url(#bar)"/>

    <circle cx="110" cy="110" r="28" fill="#ff5f56"/>
    <circle cx="190" cy="110" r="28" fill="#ffbd2e"/>
    <circle cx="270" cy="110" r="28" fill="#27c93f"/>

    <g stroke="#1a1a1a" stroke-width="32" stroke-linecap="round" fill="none">
      <path d="M120 370 L720 370"/>
      <path d="M120 490 L560 490" stroke="#d72670"/>
      <path d="M120 610 L760 610"/>
      <path d="M120 730 L520 730"/>
      <path d="M120 850 L680 850"/>
    </g>

    <g>
      <rect x="820" y="720" width="18" height="160" fill="#1a1a1a" rx="4"/>
      <rect x="800" y="720" width="58" height="18" fill="#1a1a1a" rx="4"/>
      <rect x="800" y="862" width="58" height="18" fill="#1a1a1a" rx="4"/>
    </g>

    <rect x="0" y="0" width="1024" height="1024" rx="224" ry="224" fill="none" stroke="#1a1a1a" stroke-width="12"/>
  </g>
</svg>
